<?xml version="1.0" encoding="UTF-8"?>
<svg width="40px" height="40px" viewBox="0 0 40 40" version="1.1" xmlns="http://www.w3.org/2000/svg" xmlns:xlink="http://www.w3.org/1999/xlink">
    <title>语料贡献</title>
    <g id="页面-1" stroke="none" stroke-width="1" fill="none" fill-rule="evenodd">
        <g id="首页" transform="translate(-1526.000000, -345.000000)">
            <g id="编组-2" transform="translate(252.000000, 144.000000)">
                <g id="编组" transform="translate(1159.000000, 41.000000)">
                    <g id="编组-5备份-3" transform="translate(24.000000, 160.000000)">
                        <g id="pkgship" transform="translate(1.000000, 0.000000)">
                            <g id="语料贡献" transform="translate(90.000000, 0.000000)">
                                <rect id="矩形" x="0" y="0" width="40" height="40"></rect>
                                <g id="贡献" transform="translate(7.000000, 9.000000)" fill-rule="nonzero">
                                    <path d="M11.7307467,14.8344454 C11.9732309,15.0706349 12.3368204,15.3064138 12.7008204,15.3064138 C13.0648204,15.3064138 13.428273,15.1885928 13.6708941,14.8344454 L17.9160099,10.3516349 C18.9039771,9.51092212 19.3665565,8.20582282 19.1285678,6.93058224 C18.885673,5.27903487 17.4304941,3.98122434 15.7324204,3.74558224 C14.6413783,3.62762434 13.428273,3.86367697 12.5791678,4.57142434 C11.7307467,3.86367697 10.5176414,3.62762434 9.42605197,3.74558224 C7.84949408,3.98122434 6.39445197,5.27917171 6.15183092,6.93058224 C5.90893618,8.22839276 6.39431513,9.40783487 7.36438882,10.2335401 L11.7307467,14.8344454 Z M10.1536414,4.80692961 C10.8816414,4.80692961 11.6092309,5.04298224 12.0941993,5.51522434 C12.4581993,5.86882434 12.9433046,5.86882434 13.3073046,5.51522434 C13.9132414,4.92502434 14.8838625,4.68938224 15.7324204,4.80692961 C16.9455257,4.9248875 17.9155993,5.86882434 18.1580836,7.04854013 C18.2797362,7.99234013 17.9157362,8.81804539 17.1880099,9.40783487 L12.822473,14.0086033 L12.5793046,14.0086033 L8.21349408,9.40783487 C7.48590461,8.93614013 7.12245197,7.99234013 7.36438882,7.1660875 C7.60742039,5.98678224 8.57749408,5.04352961 9.78964145,4.9248875 C9.91156776,4.80692961 10.0325362,4.80692961 10.1541888,4.80692961 L10.1536414,4.80692961 L10.1536414,4.80692961 Z" id="形状" fill="#002FA7"></path>
                                    <path d="M10.1873046,10.4389401 C10.3114204,10.5544349 10.4344414,10.670477 10.6813046,10.670477 C10.8041888,10.670477 10.9277572,10.670477 11.0511888,10.5544349 C11.2981888,10.3227612 11.2981888,9.97518224 11.0511888,9.74296118 L10.1873046,8.7000875 C9.69385197,8.35291908 9.57042039,7.77270855 9.69385197,7.19331908 C9.69385197,7.07727697 9.69385197,6.84615066 9.57042039,6.72969803 C9.44685197,6.61406645 9.32328355,6.49816118 9.19998882,6.49816118 C9.07696776,6.49816118 8.82996776,6.49816118 8.70653618,6.61420329 C8.58310461,6.72983487 8.45953618,6.84574013 8.45953618,6.96137171 C8.33610461,7.88875066 8.58351513,8.81612961 9.32342039,9.51142434 L10.1873046,10.4389401 Z" id="路径" fill="#000000"></path>
                                    <path d="M24.2084204,0.00787697368 L0.603841447,0.00787697368 C0.245725658,0.00787697368 0.00775723684,0.241055921 0.00775723684,0.590550658 C0.00775723684,0.940182237 0.2458625,1.17322434 0.603841447,1.17322434 L2.86885197,1.17322434 L2.86885197,13.5255507 C2.86885197,13.6420033 2.98776776,13.8753191 3.10736776,13.9916349 L11.9291678,21.2166243 C12.0482204,21.3332138 12.1678204,21.3332138 12.2872836,21.3332138 C12.4063362,21.3332138 12.525252,21.3332138 12.6443046,21.2166243 L21.7051678,13.8753191 C21.8240836,13.7587296 21.9431362,13.6420033 21.9431362,13.409098 L21.9431362,1.05677171 L24.2085572,1.05677171 C24.5668099,1.05677171 24.8046414,0.823592763 24.8046414,0.473961184 C24.8046414,0.124329605 24.4472099,0.00787697368 24.2084204,0.00787697368 Z M20.7513783,1.05677171 L20.7513783,13.0593296 L12.2871467,20.0511401 L4.06102039,13.1760559 L4.06102039,1.05677171 L20.7513783,1.05677171 Z" id="形状" fill="#000000"></path>
                                </g>
                            </g>
                        </g>
                    </g>
                </g>
            </g>
        </g>
    </g>
</svg>