<svg xmlns="http://www.w3.org/2000/svg" width="32" height="32" viewBox="0 0 32 32">
  <g fill="none">
    <path fill="#C7000B" d="M22.3087362,8.97485154 L22.7342767,9.80552981 L11.2490139,15.6883993 L10.709765,17.2672135 C10.6463219,17.4527944 10.4750537,17.5763376 10.2839597,17.58269 L10.211542,17.5794712 L9.35634719,17.4743993 L11.2135559,18.7680428 L10.6801963,19.5339662 L7.28035132,17.1664449 C6.9000006,16.9015833 7.09924417,16.3201303 7.5363681,16.3163846 L7.60367808,16.3202674 L9.94901385,16.6063993 L10.4271108,15.2087481 C10.4584112,15.1171896 10.517172,15.0382144 10.59454,14.9820518 L10.6559166,14.9443672 L22.3087362,8.97485154 Z"/>
    <path fill="#000" d="M22.2216026,9.03264981 L10.5617898,18.812854 C10.3252435,19.0112681 10.3431149,19.3805762 10.5977142,19.5552229 L18.1699003,24.7494941 L18.2244877,24.7823338 C18.6276846,24.9922206 19.0829607,24.5323635 18.8322111,24.1215407 L16.0450139,19.5563993 L22.9051032,9.65595625 C23.2150573,9.20857926 22.6385915,8.68288123 22.2216026,9.03264981 Z M20.1590139,11.9797326 L15.1056711,19.2745114 L15.0709014,19.3334901 C15.0006651,19.4755106 15.006764,19.6454958 15.0909365,19.7834023 L16.8983472,22.7457326 L11.6316805,19.1330659 L20.1590139,11.9797326 Z"/>
    <path fill="#000" d="M15.7910223,0.755983064 L3,8.14088325 C2.79373262,8.25997178 2.66666667,8.48005646 2.66666667,8.71823352 L2.66666667,23.4880339 C2.66666667,23.726211 2.79373262,23.9462956 3,24.0653842 L15.7910223,31.4502844 C15.9972897,31.5693729 16.2514216,31.5693729 16.457689,31.4502844 L29.2487113,24.0653842 C29.4549787,23.9462956 29.5820447,23.726211 29.5820447,23.4880339 L29.5820447,8.71823352 C29.5820447,8.48005646 29.4549787,8.25997178 29.2487113,8.14088325 L16.457689,0.755983064 C16.2514216,0.636894534 15.9972897,0.636894534 15.7910223,0.755983064 Z M16.124,2.10333333 L28.2486667,9.10266667 L28.2486667,23.1033333 L16.124,30.1026667 L4,23.1033333 L4,9.10266667 L16.124,2.10333333 Z" transform="rotate(90 16.124 16.103)"/>
  </g>
</svg>
