<svg xmlns="http://www.w3.org/2000/svg" width="32" height="32" viewBox="0 0 32 32">
  <g fill="none" fill-rule="evenodd">
    <rect width="32" height="32"/>
    <path fill="#C7000B" fill-rule="nonzero" d="M22.3087362,8.30818487 L22.7342767,9.13886314 L11.2490139,15.0217326 L10.709765,16.6005469 C10.6463219,16.7861278 10.4750537,16.9096709 10.2839597,16.9160234 L10.211542,16.9128045 L9.35634719,16.8077326 L11.2135559,18.1013762 L10.6801963,18.8672996 L7.28035132,16.4997782 C6.9000006,16.2349166 7.09924417,15.6534637 7.5363681,15.649718 L7.60367808,15.6536007 L9.94901385,15.9397326 L10.4271108,14.5420814 C10.4584112,14.450523 10.517172,14.3715477 10.59454,14.3153852 L10.6559166,14.2777005 L22.3087362,8.30818487 Z"/>
    <path fill="#000" fill-rule="nonzero" d="M22.2216026,8.36598315 L10.5617898,18.1461873 C10.3252435,18.3446014 10.3431149,18.7139095 10.5977142,18.8885563 L18.1699003,24.0828274 L18.2244877,24.1156671 C18.6276846,24.3255539 19.0829607,23.8656968 18.8322111,23.454874 L16.0450139,18.8897326 L22.9051032,8.98928959 C23.2150573,8.54191259 22.6385915,8.01621456 22.2216026,8.36598315 Z M20.1590139,11.3130659 L15.1056711,18.6078447 L15.0709014,18.6668234 C15.0006651,18.8088439 15.006764,18.9788291 15.0909365,19.1167356 L16.8983472,22.0790659 L11.6316805,18.4663993 L20.1590139,11.3130659 Z"/>
    <path fill="#000" fill-rule="nonzero" d="M16,1.33333333 C24.1001763,1.33333333 30.6666667,7.89982367 30.6666667,16 C30.6666667,24.1001763 24.1001763,30.6666667 16,30.6666667 C7.89982367,30.6666667 1.33333333,24.1001763 1.33333333,16 C1.33333333,7.89982367 7.89982367,1.33333333 16,1.33333333 Z M16,2.66666667 C8.63620334,2.66666667 2.66666667,8.63620334 2.66666667,16 C2.66666667,23.3637967 8.63620334,29.3333333 16,29.3333333 C23.3637967,29.3333333 29.3333333,23.3637967 29.3333333,16 C29.3333333,8.63620334 23.3637967,2.66666667 16,2.66666667 Z"/>
  </g>
</svg>
