<svg xmlns="http://www.w3.org/2000/svg" width="32" height="32" viewBox="0 0 32 32">
  <g fill="none" fill-rule="evenodd">
    <rect width="32" height="32"/>
    <path fill="#000" fill-rule="nonzero" d="M19.9310345,6.62068966 C20.2928762,6.62068966 20.5862069,6.92502599 20.5862069,7.30044389 C20.5862069,7.67586178 20.2928762,7.98019812 19.9310345,7.98019812 L19.9302414,7.97968966 L5.82758621,7.98019812 L5.82758621,22.5752828 L11.679213,22.5752828 C12.1152055,22.5752828 12.5431214,22.6881176 12.9247343,22.9019903 L13.1115052,23.017292 L16.068938,25.0198018 L18.8593923,23.0472592 C19.2322657,22.783679 19.6633076,22.6251924 20.1103415,22.5852897 L20.3349959,22.5752828 L26.1724138,22.5752828 L26.1722414,12.0586897 L26.1795175,11.9582744 C26.2263129,11.6304869 26.4986392,11.3789693 26.8275862,11.3789693 C27.1894279,11.3789693 27.4827586,11.6833056 27.4827586,12.0587235 L27.4822414,12.0586897 L27.4827586,22.5752828 C27.4827586,23.3261186 26.8960973,23.9347912 26.1724138,23.9347912 L20.3349959,23.9347912 C20.0717999,23.9347912 19.8147036,24.0170243 19.5971941,24.1707795 L16.8067399,26.143322 C16.3694594,26.4524309 15.7959041,26.4583417 15.3527919,26.1583056 L12.3953591,24.1557958 C12.1823743,24.0115816 11.9335419,23.9347912 11.679213,23.9347912 L5.82758621,23.9347912 C5.10390274,23.9347912 4.51724138,23.3261186 4.51724138,22.5752828 L4.51724138,7.98019812 C4.51724138,7.22936233 5.10390274,6.62068966 5.82758621,6.62068966 Z"/>
    <path fill="#C7000B" fill-rule="nonzero" d="M15.908046 13.2413793C16.2635396 13.2413793 16.5517241 13.4883946 16.5517241 13.7931034 16.5517241 14.0639557 16.3240228 14.289223 16.0237479 14.3359386L15.908046 14.3448276 9.47126437 14.3448276C9.11577074 14.3448276 8.82758621 14.0978123 8.82758621 13.7931034 8.82758621 13.5222512 9.05528756 13.2969839 9.3555624 13.2502683L9.47126437 13.2413793 15.908046 13.2413793zM22.5203762 17.5517241C22.8804866 17.5517241 23.1724138 17.7987394 23.1724138 18.1034483 23.1724138 18.3743006 22.9417553 18.5995679 22.6375808 18.6462834L22.5203762 18.6551724 9.47962382 18.6551724C9.11951339 18.6551724 8.82758621 18.4081571 8.82758621 18.1034483 8.82758621 17.832596 9.05824472 17.6073287 9.36241924 17.5606132L9.47962382 17.5517241 22.5203762 17.5517241z"/>
    <path fill="#000" fill-rule="nonzero" d="M24.3987175,4.19615242 C25.1350971,4.19615242 25.7320508,4.77675363 25.7320508,5.49296152 L25.7320508,13.7868763 C25.7320508,14.0379552 25.6571109,14.283635 25.5163285,14.4940914 L24.7305441,15.6687649 C24.3714215,16.2056192 23.6328313,16.3576741 23.0808566,16.0083891 C22.9410769,15.9199376 22.8219278,15.8039523 22.7311058,15.6679252 L21.9471456,14.4937616 C21.8067635,14.2835067 21.7320508,14.0381832 21.7320508,13.7874855 L21.7320508,5.49296152 C21.7320508,4.77675363 22.3290045,4.19615242 23.0653841,4.19615242 L24.3987175,4.19615242 Z M24.3987175,5.49296152 L23.0653841,5.49296152 L23.0653841,13.7874855 L23.7307175,14.7845987 L24.3987175,13.7868763 L24.3987175,5.49296152 Z" transform="rotate(30 23.732 10.196)"/>
  </g>
</svg>
