<svg xmlns="http://www.w3.org/2000/svg" width="32" height="32" viewBox="0 0 32 32">
  <g fill="none" fill-rule="evenodd">
    <path fill="#000" fill-rule="nonzero" d="M24.6666667,7.33333333 C25.0085572,7.33333333 25.2903381,7.59069346 25.3288482,7.92225258 L25.3333333,8 L25.3333333,16.5007133 C25.3333333,16.8689031 25.0348565,17.16738 24.6666667,17.16738 C24.3247761,17.16738 24.0429952,16.9100198 24.0044852,16.5784607 L24,16.5007133 L24,8.666 L4.66666667,8.666 L4.66666667,27.9993333 L18,28 C18.3418906,28 18.6236714,28.2573601 18.6621815,28.5889192 L18.6666667,28.6666667 C18.6666667,29.0085572 18.4093065,29.2903381 18.0777474,29.3288482 L18,29.3333333 L4,29.3333333 C3.65810944,29.3333333 3.37632856,29.0759732 3.33781849,28.7444141 L3.33333333,28.6666667 L3.33333333,8 C3.33333333,7.65810944 3.59069346,7.37632856 3.92225258,7.33781849 L4,7.33333333 L24.6666667,7.33333333 Z"/>
    <polygon fill="#000" fill-rule="nonzero" points="25.133 14.2 25.133 15.133 4.2 15.133 4.2 14.2"/>
    <path fill="#000" fill-rule="nonzero" d="M17.4023915,10.8666667 C17.6601243,10.8666667 17.8690581,11.0756005 17.8690581,11.3333333 C17.8690581,11.5695885 17.6934957,11.7648388 17.4657154,11.7957399 L17.4023915,11.8 L7.3793988,11.8 C7.12166591,11.8 6.91273213,11.5910662 6.91273213,11.3333333 C6.91273213,11.0970782 7.08829455,10.9018278 7.3160749,10.8709268 L7.3793988,10.8666667 L17.4023915,10.8666667 Z"/>
    <circle cx="20.667" cy="10.667" r="1" fill="#000"/>
    <path fill="#000" fill-rule="nonzero" d="M28.7171798,3.33333333 C29.0590703,3.33333333 29.3408512,3.59069346 29.3793613,3.92225258 L29.3838464,4 L29.3838464,15.9879947 C29.3838464,16.3561845 29.0853696,16.6546614 28.7171798,16.6546614 C28.3752892,16.6546614 28.0935083,16.3973012 28.0549982,16.0657421 L28.0505131,15.9879947 L28.05,4.66666667 L8.614,4.66666667 L8.61424966,7.32132804 C8.61424966,7.6632186 8.35688953,7.94499948 8.02533041,7.98350955 L7.94758299,7.98799471 C7.60569243,7.98799471 7.32391155,7.73063458 7.28540148,7.39907546 L7.28091632,7.32132804 L7.28091632,4 C7.28091632,3.65810944 7.53827645,3.37632856 7.86983557,3.33781849 L7.94758299,3.33333333 L28.7171798,3.33333333 Z"/>
    <path fill="#C7000B" fill-rule="nonzero" d="M23,18.2 C20.3490332,18.2 18.2,20.3490332 18.2,23 C18.2,25.6509668 20.3490332,27.8 23,27.8 C25.6509668,27.8 27.8,25.6509668 27.8,23 C27.8,20.3490332 25.6509668,18.2 23,18.2 Z M23,19.1333333 C25.135501,19.1333333 26.8666667,20.864499 26.8666667,23 C26.8666667,25.135501 25.135501,26.8666667 23,26.8666667 C20.864499,26.8666667 19.1333333,25.135501 19.1333333,23 C19.1333333,20.864499 20.864499,19.1333333 23,19.1333333 Z"/>
    <path fill="#C7000B" fill-rule="nonzero" d="M25.9998357,26.0069025 C26.1620902,25.8411354 26.4176383,25.8219959 26.6013967,25.9512519 L26.6597642,25.9998357 L29.0436106,28.3331691 C29.2277963,28.5134519 29.2309602,28.8089119 29.0506774,28.9930975 C28.8884229,29.1588646 28.6328748,29.1780041 28.4491164,29.0487481 L28.3907489,29.0001643 L26.0069025,26.6668309 C25.8227168,26.4865481 25.8195529,26.1910881 25.9998357,26.0069025 Z"/>
    <path fill="#000" fill-rule="nonzero" d="M9.25468694 17.8666667C9.51241982 17.8666667 9.72135361 18.0756005 9.72135361 18.3333333 9.72135361 18.5695885 9.54579119 18.7648388 9.31801084 18.7957399L9.25468694 18.8 7.33333333 18.8C7.07560045 18.8 6.86666667 18.5910662 6.86666667 18.3333333 6.86666667 18.0970782 7.04222908 17.9018278 7.27000943 17.8709268L7.33333333 17.8666667 9.25468694 17.8666667zM9.25468694 21.2C9.51241982 21.2 9.72135361 21.4089338 9.72135361 21.6666667 9.72135361 21.9029218 9.54579119 22.0981722 9.31801084 22.1290732L9.25468694 22.1333333 7.33333333 22.1333333C7.07560045 22.1333333 6.86666667 21.9243995 6.86666667 21.6666667 6.86666667 21.4304115 7.04222908 21.2351612 7.27000943 21.2042601L7.33333333 21.2 9.25468694 21.2zM16.4076023 17.8666667C16.6653352 17.8666667 16.8742689 18.0756005 16.8742689 18.3333333 16.8742689 18.5695885 16.6987065 18.7648388 16.4709262 18.7957399L16.4076023 18.8 11.5880203 18.8C11.3302874 18.8 11.1213536 18.5910662 11.1213536 18.3333333 11.1213536 18.0970782 11.296916 17.9018278 11.5246964 17.8709268L11.5880203 17.8666667 16.4076023 17.8666667zM16.4076023 21.2C16.6653352 21.2 16.8742689 21.4089338 16.8742689 21.6666667 16.8742689 21.9029218 16.6987065 22.0981722 16.4709262 22.1290732L16.4076023 22.1333333 11.5880203 22.1333333C11.3302874 22.1333333 11.1213536 21.9243995 11.1213536 21.6666667 11.1213536 21.4304115 11.296916 21.2351612 11.5246964 21.2042601L11.5880203 21.2 16.4076023 21.2z"/>
  </g>
</svg>
