<svg xmlns="http://www.w3.org/2000/svg" width="32" height="32" viewBox="0 0 32 32">
  <g fill="none">
    <path fill="#000" d="M20 2.66666667L8 2.66666667C7.63181017 2.66666667 7.33333333 2.9651435 7.33333333 3.33333333L7.33333333 7.33333333C7.33333333 7.70152317 7.63181017 8 8 8L20 8C20.3681898 8 20.6666667 7.70152317 20.6666667 7.33333333L20.6666667 3.33333333C20.6666667 2.9651435 20.3681898 2.66666667 20 2.66666667zM19.3333333 4L19.3333333 6.66666667 8.66666667 6.66666667 8.66666667 4 19.3333333 4zM20.5641027 11.5605958C20.9322925 11.5605958 21.2307693 11.8590726 21.2307693 12.2272625 21.2307693 12.569153 20.9734092 12.8509339 20.6418501 12.889444L20.5641027 12.8939291 7.33333333 12.8939291C6.9651435 12.8939291 6.66666667 12.5954523 6.66666667 12.2272625 6.66666667 11.8853719 6.92402679 11.603591 7.25558592 11.5650809L7.33333333 11.5605958 20.5641027 11.5605958zM16.5641027 16.3333333C16.9322925 16.3333333 17.2307693 16.6318102 17.2307693 17 17.2307693 17.3418906 16.9734092 17.6236714 16.6418501 17.6621815L16.5641027 17.6666667 7.33333333 17.6666667C6.9651435 17.6666667 6.66666667 17.3681898 6.66666667 17 6.66666667 16.6581094 6.92402679 16.3763286 7.25558592 16.3378185L7.33333333 16.3333333 16.5641027 16.3333333zM13.897436 21.3333333C14.2656258 21.3333333 14.5641027 21.6318102 14.5641027 22 14.5641027 22.3418906 14.3067425 22.6236714 13.9751834 22.6621815L13.897436 22.6666667 7.33333333 22.6666667C6.9651435 22.6666667 6.66666667 22.3681898 6.66666667 22 6.66666667 21.6581094 6.92402679 21.3763286 7.25558592 21.3378185L7.33333333 21.3333333 13.897436 21.3333333z"/>
    <path fill="#000" d="M8.00890399,4.66666667 C8.37709382,4.66666667 8.67557066,4.9651435 8.67557066,5.33333333 C8.67557066,5.67522389 8.41821053,5.95700477 8.08665141,5.99551485 L8.00890399,6 L4.66666667,6 L4.66666667,28 L15.2307693,28 C15.5726599,28 15.8544408,28.2573601 15.8929508,28.5889192 L15.897436,28.6666667 C15.897436,29.0085572 15.6400759,29.2903381 15.3085168,29.3288482 L15.2307693,29.3333333 L4,29.3333333 C3.65810944,29.3333333 3.37632856,29.0759732 3.33781849,28.7444141 L3.33333333,28.6666667 L3.33333333,5.33333333 C3.33333333,4.99144277 3.59069346,4.70966189 3.92225258,4.67115182 L4,4.66666667 L8.00890399,4.66666667 Z M23.9982364,4.66666667 C24.340127,4.66666667 24.6219079,4.92402679 24.6604179,5.25558592 L24.6649031,5.33333333 L24.6649031,12.0432053 C24.6649031,12.4113952 24.3664262,12.709872 23.9982364,12.709872 C23.6563459,12.709872 23.374565,12.4525119 23.3360549,12.1209527 L23.3315697,12.0432053 L23.3313333,6 L20.0520772,6 C19.7101867,6 19.4284058,5.74263987 19.3898957,5.41108075 L19.3854105,5.33333333 C19.3854105,4.99144277 19.6427707,4.70966189 19.9743298,4.67115182 L20.0520772,4.66666667 L23.9982364,4.66666667 Z"/>
    <path fill="#C7000B" d="M23.2453972,14.1419125 L23.1620174,14.1416667 L23.0152694,14.1459125 L22.8709243,14.155065 L22.7614867,14.1656508 C20.7971202,14.383359 19.2960371,16.0493654 19.2960371,18.0416667 C19.2960371,19.2849056 19.8824207,20.4318844 20.8573288,21.1625925 L20.9777492,21.2674419 L21.2081074,21.4639525 L21.2680682,21.5209747 L21.346984,21.5911211 C21.6497246,21.809962 21.8356976,22.6701255 21.6896269,23.1187828 C21.4035437,24.1038233 20.6269394,24.8081252 19.4934583,25.2753536 C18.7088283,25.5987832 17.7789626,25.7776299 17.3333333,25.7776299 C17.039426,25.7776299 16.8027689,26.0188908 16.8084308,26.3127435 L16.8127264,26.7221785 L16.8103928,27.4307192 C16.8098133,27.4974846 16.8091373,27.5661768 16.8083647,27.6367932 C16.8051679,27.9290128 17.041204,28.1675364 17.3334411,28.1675364 L23.1961077,28.1663333 L29.0584104,28.1675364 C29.3504211,28.1675364 29.5863655,27.9293681 29.5834927,27.6373715 L29.5791341,27.052604 L29.579984,26.5738634 L29.5834207,26.3127435 C29.5890826,26.0188908 29.3524254,25.7776299 29.0585181,25.7776299 C28.6128889,25.7776299 27.6830232,25.5987832 26.8983932,25.2753536 C25.7649121,24.8081252 24.9883078,24.1038233 24.7072226,23.1350225 C24.5655957,22.6991815 24.7201969,21.9159384 24.9895258,21.6394162 L25.1237833,21.5209747 L25.183744,21.4639525 L25.5686141,21.1347335 C26.5094308,20.4318844 27.0958143,19.2849056 27.0958143,18.0416667 C27.0958143,16.1015595 25.6723403,14.4708488 23.7832262,14.1856367 L23.5818575,14.1605712 L23.3895933,14.1465014 L23.2453972,14.1419125 Z M23.1780639,15.1914208 L23.229351,15.1916667 L23.3977576,15.1986344 L23.5135898,15.2091125 C24.9483248,15.3678566 26.0458143,16.5857609 26.0458143,18.0416667 C26.0458143,18.9508131 25.6178313,19.787957 24.9047836,20.3223969 L24.4977061,20.6686437 L24.4139148,20.7453653 C24.4014923,20.7572708 24.3896276,20.7689371 24.378,20.7806667 L24.4297424,20.740168 C23.7176592,21.2549088 23.427733,22.5958768 23.7038071,23.4438405 C24.0820357,24.7484469 25.0961856,25.6681788 26.4982391,26.2461145 L26.6827644,26.3191202 C27.2257903,26.525326 27.8062349,26.6724111 28.2975976,26.7537273 L28.5286667,26.7873333 L28.5293333,27.1173333 L23.1961077,27.1163333 L17.862,27.1173333 L17.8626667,26.7873333 L17.8894926,26.784531 C18.4719636,26.7060987 19.2237805,26.5222236 19.8936124,26.2461145 C21.2956659,25.6681788 22.3098158,24.7484469 22.6930424,23.4276008 L22.7265431,23.3111529 C22.9268728,22.5154622 22.6687802,21.3490768 22.0565816,20.8153558 L22.014,20.782 L21.9377609,20.7078749 L21.7815838,20.5716684 L21.5211593,20.3502559 C20.7740201,19.787957 20.3460371,18.9508131 20.3460371,18.0416667 C20.3460371,16.6328984 21.3736022,15.4469911 22.7401623,15.2278398 L22.9140233,15.2053836 L22.9995827,15.198311 L23.0613132,15.19481 L23.1780639,15.1914208 Z"/>
    <path fill="#C7000B" d="M18.5499111,27.9664375 L18.5493333,28.7133333 L27.79,28.684 L27.7904354,27.9664375 L28.8404354,27.9664375 L28.8404354,29.2070449 C28.8404354,29.4722199 28.6438025,29.6915923 28.3882108,29.7270388 L28.3171457,29.7320421 L18.0266213,29.7655679 C17.7602232,29.7664329 17.5396387,29.5687657 17.5047246,29.3119656 L17.4999111,29.2405678 L17.4999111,27.9664375 L18.5499111,27.9664375 Z"/>
  </g>
</svg>
