<svg xmlns="http://www.w3.org/2000/svg" width="32" height="32" viewBox="0 0 32 32">
  <g fill="none" fill-rule="evenodd">
    <rect width="32" height="32"/>
    <path fill="#000" fill-rule="nonzero" d="M14.6666667 10C15.0348565 10 15.3333333 10.2984768 15.3333333 10.6666667 15.3333333 10.9939465 15.0974998 11.2661445 14.7865008 11.3225924L14.6666667 11.3333333 6.66666667 11.3333333C6.29847683 11.3333333 6 11.0348565 6 10.6666667 6 10.3393868 6.23583355 10.0671888 6.54683249 10.0107409L6.66666667 10 14.6666667 10zM12 14.6666667C12.3681898 14.6666667 12.6666667 14.9651435 12.6666667 15.3333333 12.6666667 15.6606132 12.4308331 15.9328112 12.1198342 15.9892591L12 16 6.66666667 16C6.29847683 16 6 15.7015232 6 15.3333333 6 15.0060535 6.23583355 14.7338555 6.54683249 14.6774076L6.66666667 14.6666667 12 14.6666667zM20 19.3333333C20.3681898 19.3333333 20.6666667 19.6318102 20.6666667 20 20.6666667 20.3272799 20.4308331 20.5994778 20.1198342 20.6559258L20 20.6666667 6.66666667 20.6666667C6.29847683 20.6666667 6 20.3681898 6 20 6 19.6727201 6.23583355 19.4005222 6.54683249 19.3440742L6.66666667 19.3333333 20 19.3333333z"/>
    <path fill="#C7000B" fill-rule="nonzero" d="M20.6666667,5.2731003 L20.6666667,9.99466667 L22.6666667,8.13183458 L24.6666667,9.996 L24.6666667,5.2731003 L26,5.2731003 L26,11.4988378 C25.9673676,11.7538045 25.9673676,11.7538045 25.8173678,11.962546 C25.398485,12.2134114 25.3519425,12.2412853 25.0027458,12.069808 L24.8562918,11.9962056 L22.6666667,9.95333333 L20.4770415,11.9962056 L20.3207062,12.1029696 C20.2601544,12.1381158 20.2131456,12.1509814 20.1217163,12.1643954 L20.0133333,12.1788378 L19.7737094,12.1068163 C19.5782527,12.0417171 19.5030361,11.985123 19.4377066,11.8266809 L19.3715855,11.6302024 L19.3333333,11.4988378 L19.3333333,5.2731003 L20.6666667,5.2731003 Z"/>
    <rect width="28.6" height="22.6" x="1.7" y="4.7" stroke="#000" stroke-width="1.4" rx="2"/>
  </g>
</svg>
