<?xml version="1.0" encoding="UTF-8"?>
<svg width="32px" height="32px" viewBox="0 0 32 32" version="1.1" xmlns="http://www.w3.org/2000/svg" xmlns:xlink="http://www.w3.org/1999/xlink">
    <title>画板</title>
    <g id="画板" stroke="none" stroke-width="1" fill="none" fill-rule="evenodd">
        <g id="编组" fill-rule="nonzero">
            <g id="正常/辅助修饰类/学习发展/考试-&amp;-笔试">
                <path d="M24.6666667,2 C25.0085572,2 25.2903381,2.25736013 25.3288482,2.58891925 L25.3333333,2.66666667 L25.3333333,12.236743 C25.3333333,12.6049329 25.0348565,12.9034097 24.6666667,12.9034097 C24.3247761,12.9034097 24.0429952,12.6460496 24.0044852,12.3144905 L24,12.236743 L24,3.33333333 L5.33333333,3.33333333 L5.33333333,28.6666667 L24,28.6666667 L24,23.1416995 C24,22.799809 24.2573601,22.5180281 24.5889192,22.479518 L24.6666667,22.4750328 C25.0085572,22.4750328 25.2903381,22.732393 25.3288482,23.0639521 L25.3333333,23.1416995 L25.3333333,29.3333333 C25.3333333,29.6752239 25.0759732,29.9570048 24.7444141,29.9955148 L24.6666667,30 L4.66666667,30 C4.32477611,30 4.04299523,29.7426399 4.00448515,29.4110808 L4,29.3333333 L4,2.66666667 C4,2.32477611 4.25736013,2.04299523 4.58891925,2.00448515 L4.66666667,2 L24.6666667,2 Z" id="路径" fill="#000000"></path>
                <path d="M21.3333333,5.33333333 L8,5.33333333 C7.63181017,5.33333333 7.33333333,5.63181017 7.33333333,6 L7.33333333,9.33333333 C7.33333333,9.70152317 7.63181017,10 8,10 L21.3333333,10 C21.7015232,10 22,9.70152317 22,9.33333333 L22,6 C22,5.63181017 21.7015232,5.33333333 21.3333333,5.33333333 Z M20.6666667,6.66666667 L20.6666667,8.66666667 L8.66666667,8.66666667 L8.66666667,6.66666667 L20.6666667,6.66666667 Z" id="矩形" fill="#000000"></path>
                <path d="M21.3333333,13.6666667 C21.7015232,13.6666667 22,13.9651435 22,14.3333333 C22,14.6752239 21.7426399,14.9570048 21.4110808,14.9955148 L21.3333333,15 L8,15 C7.63181017,15 7.33333333,14.7015232 7.33333333,14.3333333 C7.33333333,13.9914428 7.59069346,13.7096619 7.92225258,13.6711518 L8,13.6666667 L21.3333333,13.6666667 Z" id="直线" fill="#000000"></path>
                <path d="M16,17.3333333 C16.3681898,17.3333333 16.6666667,17.6318102 16.6666667,18 C16.6666667,18.3418906 16.4093065,18.6236714 16.0777474,18.6621815 L16,18.6666667 L8,18.6666667 C7.63181017,18.6666667 7.33333333,18.3681898 7.33333333,18 C7.33333333,17.6581094 7.59069346,17.3763286 7.92225258,17.3378185 L8,17.3333333 L16,17.3333333 Z" id="直线备份" fill="#000000"></path>
                <path d="M23.9290983,11.0634829 L21.2624316,11.0634829 C21.0046987,11.0634829 20.7957649,11.2724166 20.7957649,11.5301495 L20.7957649,26.7054597 C20.7957649,26.7921041 20.8198867,26.8770376 20.8654285,26.9507478 L22.1987618,29.108771 C22.3811332,29.4039424 22.8103967,29.4039424 22.9927681,29.108771 L24.3261014,26.9507478 C24.3716432,26.8770376 24.3957649,26.7921041 24.3957649,26.7054597 L24.3957649,11.5301495 C24.3957649,11.2724166 24.1868312,11.0634829 23.9290983,11.0634829 Z M23.462,11.9966667 L23.462,26.5733333 L22.596,27.9753333 L21.7286667,26.572 L21.7286667,11.9966667 L23.462,11.9966667 Z" id="矩形" fill="#C7000B" transform="translate(22.595765, 20.196816) rotate(37.000000) translate(-22.595765, -20.196816) "></path>
            </g>
        </g>
    </g>
</svg>