<svg xmlns="http://www.w3.org/2000/svg" width="32" height="32" viewBox="0 0 32 32">
  <g fill="none">
    <path fill="#C7000B" d="M16.3683155,8.19993196 L16.4287962,8.20416317 L16.4845667,8.21528358 L16.5508305,8.23824365 L16.6034515,8.26510473 C17.2372643,8.6403643 18.2028699,9.09761716 18.6960222,9.25961362 C19.2503484,9.44170517 20.6466874,9.58315084 21.7867763,9.54252625 L22,9.53333333 C22.0263802,9.53333333 22.0522493,9.53552224 22.0774353,9.53972834 L22.1322957,9.55235108 L22.1885121,9.57297516 L22.2401933,9.59981456 L22.2858389,9.63109495 L22.3312269,9.67126594 L22.360726,9.70388524 L22.4041043,9.76643101 L22.4355489,9.83209448 L22.4573868,9.90707428 L22.4653374,9.96477673 L22.4647687,17.7137313 L22.4594304,17.7539814 L22.4482466,17.8018861 L22.4330413,17.8458793 L22.4048261,17.9040726 L22.3851877,17.935151 L22.356577,17.9728086 L22.3374652,17.9940056 L19.2408793,20.7611026 L18.1783748,21.701696 C18.0039969,21.8552976 17.8296651,22.0084563 17.653419,22.1628813 L16.6709669,23.0196408 L16.7212066,22.9689792 L16.6781819,23.0133406 L16.6716477,23.0190497 C16.5743398,23.1035348 16.4519997,23.1405799 16.3328653,23.1321768 C16.2764445,23.1281304 16.221637,23.1143207 16.1700451,23.0904681 L16.115968,23.0610376 L16.0633875,23.0221732 L15.0851858,22.1865358 L13.8985092,21.16005 L10.8356292,18.4480382 L10.3558816,18.0197925 C10.3358193,18.0018821 10.3176684,17.9826284 10.3014435,17.9622884 L10.2808523,17.9343016 L10.2552032,17.8920949 L10.2355822,17.8507153 L10.2098507,17.7672324 L10.2,17.6716684 L10.2,10 C10.2,9.74226712 10.4089338,9.53333333 10.6666666,9.53333333 C11.9126391,9.53333333 13.0976247,9.43462843 13.7979614,9.25148757 C13.9964105,9.19959232 14.2681533,9.10366445 14.5655238,8.98543104 L14.9316189,8.83423482 C15.303914,8.67511301 15.6856571,8.49638604 15.9944812,8.33559831 L16.1424354,8.2568732 C16.164495,8.24485465 16.1870971,8.23480094 16.2100405,8.22665279 L16.2775913,8.20826538 L16.3405979,8.20056695 L16.3683155,8.19993196 Z M16.254566,9.25078266 C15.5395514,9.60936341 14.5832554,10.0108484 14.0340915,10.1544569 C13.3339472,10.3375475 12.277202,10.4403937 11.1333845,10.4622464 L11.1326667,17.462 L13.6559606,19.706218 L14.5185725,20.4624018 L15.4065055,21.2318396 L16.0329728,21.7696015 C16.1406933,21.8617478 16.2502701,21.955327 16.3620057,22.0505987 L16.932672,21.5534278 L17.7702495,20.8172149 L21.5338426,17.462175 L21.5335494,10.4820262 C20.3547472,10.4960756 19.0241959,10.3498161 18.4047429,10.1463309 C17.9849812,10.0084426 17.3079282,9.70331157 16.7052737,9.38802724 L16.3552623,9.19889496 L16.254566,9.25078266 Z"/>
    <path fill="#C7000B" d="M18,14.5333333 C18.2577329,14.5333333 18.4666667,14.7422671 18.4666667,15 C18.4666667,15.2362551 18.2911043,15.4315055 18.0633239,15.4624066 L18,15.4666667 L14.6666667,15.4666667 C14.4089338,15.4666667 14.2,15.2577329 14.2,15 C14.2,14.7637449 14.3755624,14.5684945 14.6033428,14.5375934 L14.6666667,14.5333333 L18,14.5333333 Z"/>
    <path fill="#C7000B" d="M16.3333333,12.8666667 C16.5695885,12.8666667 16.7648388,13.0422291 16.7957399,13.2700094 L16.8,13.3333333 L16.8,16.6666667 C16.8,16.9243995 16.5910662,17.1333333 16.3333333,17.1333333 C16.0970782,17.1333333 15.9018278,16.9577709 15.8709268,16.7299906 L15.8666667,16.6666667 L15.8666667,13.3333333 C15.8666667,13.0756005 16.0756005,12.8666667 16.3333333,12.8666667 Z"/>
    <path fill="#000" d="M16.1107188,1.34256726 L16.1466067,1.34964687 L16.2132298,1.36822031 L16.2730687,1.39177144 L16.3312212,1.42143545 C16.4682245,1.49986815 16.6120636,1.57989239 16.7610634,1.66074286 L17.2218696,1.90500767 C17.3795156,1.9867453 17.5406471,2.06854386 17.7035889,2.14963804 L18.1961702,2.39004216 L18.6895624,2.62162822 C18.7713036,2.65923595 18.8526598,2.69628494 18.9334216,2.73267953 L19.4091845,2.94242882 C19.9520108,3.1761889 20.4451904,3.36850801 20.8169001,3.48657377 C22.3421087,3.97102415 25.3958691,4.40154315 27.7017813,4.32144116 L28,4.30895536 C28.0311867,4.30895536 28.0618733,4.31109681 28.0919207,4.31524068 L28.1580592,4.32779892 L28.2220579,4.34683186 L28.2637634,4.36318977 L28.3582927,4.41332512 L28.4286905,4.4650446 L28.4743483,4.50717948 L28.5201483,4.55857873 L28.5506824,4.59969254 L28.5894652,4.66387043 L28.6220112,4.73523326 L28.6441878,4.80343899 L28.6588782,4.87368974 L28.6657155,4.94002178 L28.6653733,20.4803248 L28.6567669,20.5533898 L28.6416178,20.6201098 L28.6134418,20.7002187 L28.5798611,20.7681272 L28.5369316,20.8342163 L28.4896525,20.8913232 L28.4353037,20.9437438 L21.9351033,26.5562333 L20.1294419,28.1033502 L18.3508136,29.6150274 L17.1296956,30.6455896 L16.4971904,31.1772588 L16.4567842,31.2086579 L16.3949259,31.248166 L16.3233093,31.2828772 L16.2645934,31.3040346 L16.207845,31.3187372 L16.133922,31.3301715 L16.0719554,31.3333417 L15.9963611,31.3294905 L15.9173915,31.3161245 L15.8581198,31.2994313 L15.8023079,31.2780259 L15.748368,31.2516189 L15.6939548,31.218198 L15.645129,31.1816099 L13.5749087,29.4715891 L12.0468341,28.1973566 L10.5770162,26.9603217 L6.64520119,23.6010823 L3.52650892,20.9081681 L3.47741224,20.852815 L3.43544173,20.7935716 L3.39674043,20.7229597 L3.37543244,20.6723218 L3.35310712,20.600205 L3.33781848,20.5165604 L3.33333333,20.438813 L3.33333333,4.97562203 C3.33333333,4.60743219 3.63181016,4.30895536 3.99999999,4.30895536 C6.28599413,4.30895536 9.31166348,3.88215385 10.9205438,3.36375446 L11.1291746,3.29534546 L11.5777142,3.14155704 L12.0583491,2.96873165 L12.559549,2.78117756 L13.0697837,2.58320306 C13.1549352,2.54957829 13.2399826,2.51569885 13.3246859,2.48165449 L13.8268535,2.27612738 L14.3092303,2.07095055 C14.7778682,1.86738495 15.1995244,1.67080718 15.5223129,1.50060449 L15.7138869,1.39782397 L15.8004072,1.36378702 L15.8396526,1.35290296 C15.8566584,1.34851331 15.8735659,1.34502122 15.8905168,1.34220057 C15.9447991,1.33377794 15.9939439,1.33142916 16.0431175,1.33457871 L16.1107188,1.34256726 Z M15.9898954,2.75874423 L15.9767252,2.76627946 C14.7748056,3.37403972 12.6822641,4.19694622 11.3294562,4.63283618 C9.73761642,5.14574492 6.97341893,5.56147736 4.66585657,5.63179947 L4.66672326,20.1336444 L9.84563583,24.5895713 L11.4943775,25.9899041 L13.0768545,27.3207855 L14.7339676,28.7006979 L16.0644257,29.7998881 L17.4893937,28.5973174 L18.6745023,27.5914968 L20.4558904,26.0691019 L27.3335751,20.1332487 L27.3335751,5.66325897 C26.1823415,5.67568711 24.9048487,5.58275831 23.71331,5.42740932 L23.1256861,5.34473192 C22.06511,5.18434915 21.1064808,4.97752921 20.4132666,4.75734432 C19.732987,4.54126783 18.7167746,4.11430057 17.7008201,3.63108772 L17.1944208,3.38551012 L16.6974031,3.13485395 C16.4527961,3.00897217 16.2152092,2.88279682 15.9898954,2.75874423 Z"/>
  </g>
</svg>
